<?xml version="1.0" encoding="utf-8"?>
<!-- Generator: Adobe Illustrator 17.0.0, SVG Export Plug-In . SVG Version: 6.00 Build 0)  -->
<!DOCTYPE svg PUBLIC "-//W3C//DTD SVG 1.1//EN" "http://www.w3.org/Graphics/SVG/1.1/DTD/svg11.dtd">
<svg version="1.1" xmlns="http://www.w3.org/2000/svg" xmlns:xlink="http://www.w3.org/1999/xlink" x="0px" y="0px" width="30px"
	 height="30px" viewBox="0 0 30 30" enable-background="new 0 0 30 30" xml:space="preserve">
<g id="Grids">
</g>
<g id="Ebene_1">
	<g id="Favorite">
	</g>
	<g>
		<g>
			<path fill="#A1A1A1" d="M15,2.965C8.364,2.965,2.965,8.364,2.965,15S8.364,27.035,15,27.035S27.035,21.636,27.035,15
				S21.636,2.965,15,2.965z M22.957,8.516c1.429,1.749,2.298,3.977,2.319,6.403c-0.337-0.071-3.737-0.762-7.155-0.33
				c-0.074-0.175-0.148-0.354-0.222-0.532c-0.212-0.499-0.441-0.998-0.681-1.486C21.016,11.017,22.738,8.809,22.957,8.516z
				 M15,4.738c2.612,0,4.998,0.981,6.814,2.592c-0.185,0.263-1.732,2.342-5.389,3.71c-1.682-3.094-3.549-5.635-3.835-6.016
				C13.366,4.836,14.171,4.738,15,4.738z M10.629,5.715c0.273,0.371,2.11,2.915,3.812,5.945c-4.809,1.277-9.042,1.257-9.504,1.25
				C5.604,9.722,7.754,7.07,10.629,5.715z M4.721,15.017c0-0.104,0.003-0.209,0.003-0.313c0.452,0.01,5.433,0.074,10.565-1.463
				c0.293,0.576,0.576,1.159,0.832,1.742c-0.135,0.04-0.27,0.081-0.404,0.125c-5.301,1.712-8.122,6.383-8.354,6.781
				C5.722,20.065,4.721,17.656,4.721,15.017z M15,25.296c-2.376,0-4.566-0.812-6.309-2.17c0.185-0.377,2.265-4.398,8.065-6.42
				c0.02-0.007,0.044-0.013,0.067-0.024c1.442,3.751,2.039,6.895,2.191,7.795C17.78,25.002,16.422,25.296,15,25.296z M20.743,23.536
				c-0.104-0.623-0.654-3.633-1.998-7.327c3.222-0.516,6.053,0.327,6.403,0.438C24.689,19.506,23.048,21.976,20.743,23.536z"/>
		</g>
	</g>
</g>
</svg>
