<?xml version="1.0" encoding="utf-8"?>
<!-- Generator: Adobe Illustrator 17.0.0, SVG Export Plug-In . SVG Version: 6.00 Build 0)  -->
<!DOCTYPE svg PUBLIC "-//W3C//DTD SVG 1.1//EN" "http://www.w3.org/Graphics/SVG/1.1/DTD/svg11.dtd">
<svg version="1.1" xmlns="http://www.w3.org/2000/svg" xmlns:xlink="http://www.w3.org/1999/xlink" x="0px" y="0px" width="40px"
	 height="30px" viewBox="0 0 40 30" enable-background="new 0 0 40 30" xml:space="preserve">
<g id="Grids">
</g>
<g id="Ebene_1">
	<g id="Favorite">
	</g>
	<g>
		<g>
			<path id="SVGID_13_" fill="#A1A1A1" d="M5.156,14.098c-0.051-0.039-0.102-0.079-0.153-0.12c-1.961-1.552-3.922-3.571-3.922-3.571
				s1.823-1.804,3.628-3.27L4.582,5.159c0,0,3.324-0.819,11.028-0.819c6.884,0,12.402,0.819,12.402,0.819S27.607,5.873,27.2,6.945
				c0.393,0.437,0.864,0.903,1.403,1.334c0.688,0.55,1.481,1.046,2.193,1.446c0.525-0.597,1.263-1.335,1.965-1.896
				c1.519-1.215,3.075-1.725,3.075-1.725v4.331h0.448c0.202-1,0.694-0.981,1.269-0.981c0.755,0,1.367,0.55,1.367,1.305
				s-0.612,1.45-1.367,1.45c-0.575,0-1.067-0.774-1.269-0.774h-0.448v4.003c0,0-1.54-0.564-3.075-1.792
				c-0.762-0.61-1.553-1.422-2.092-2.028c-0.679,0.334-1.424,0.757-2.056,1.263c-0.567,0.454-1.059,0.97-1.459,1.462
				c0.423,1.034,0.963,1.732,0.963,1.732s-4.281,0.576-9.281,0.863v4.497h-1.294l0.393,3.421c0,0-1.657,1.14-5.2,0.705
				c-0.978-0.12-2.069-0.589-2.069-0.589l0.124-2.405l0.293-5.749c-3.114-0.289-5.797-0.749-5.797-0.749L5.156,14.098z"/>
		</g>
		<g>
			<defs>
				<path id="SVGID_12_" d="M5.156,14.098c-0.051-0.039-0.102-0.079-0.153-0.12c-1.961-1.552-3.922-3.571-3.922-3.571
					s1.823-1.804,3.628-3.27L4.582,5.159c0,0,3.324-0.819,11.028-0.819c6.884,0,12.402,0.819,12.402,0.819S27.607,5.873,27.2,6.945
					c0.393,0.437,0.864,0.903,1.403,1.334c0.688,0.55,1.481,1.046,2.193,1.446c0.525-0.597,1.263-1.335,1.965-1.896
					c1.519-1.215,3.075-1.725,3.075-1.725v4.331h0.448c0.202-1,0.694-0.981,1.269-0.981c0.755,0,1.367,0.55,1.367,1.305
					s-0.612,1.45-1.367,1.45c-0.575,0-1.067-0.774-1.269-0.774h-0.448v4.003c0,0-1.54-0.564-3.075-1.792
					c-0.762-0.61-1.553-1.422-2.092-2.028c-0.679,0.334-1.424,0.757-2.056,1.263c-0.567,0.454-1.059,0.97-1.459,1.462
					c0.423,1.034,0.963,1.732,0.963,1.732s-4.281,0.576-9.281,0.863v4.497h-1.294l0.393,3.421c0,0-1.657,1.14-5.2,0.705
					c-0.978-0.12-2.069-0.589-2.069-0.589l0.124-2.405l0.293-5.749c-3.114-0.289-5.797-0.749-5.797-0.749L5.156,14.098z"/>
			</defs>
			<use xlink:href="#SVGID_12_"  overflow="visible" fill="#A1A1A1"/>
			<clipPath id="SVGID_15_">
				<use xlink:href="#SVGID_12_"  overflow="visible"/>
			</clipPath>
		</g>
	</g>
</g>
</svg>
