<?xml version="1.0" encoding="utf-8"?>
<!-- Generator: Adobe Illustrator 17.0.0, SVG Export Plug-In . SVG Version: 6.00 Build 0)  -->
<!DOCTYPE svg PUBLIC "-//W3C//DTD SVG 1.1//EN" "http://www.w3.org/Graphics/SVG/1.1/DTD/svg11.dtd">
<svg version="1.1" id="Layer_1" xmlns="http://www.w3.org/2000/svg" xmlns:xlink="http://www.w3.org/1999/xlink" x="0px" y="0px"
	 width="160px" height="160px" viewBox="0 0 160 160" enable-background="new 0 0 160 160" xml:space="preserve">
<path fill="#505EF3" d="M160,60v90c0,5.53-4.48,10-10,10H10c-5.52,0-10-4.47-10-10V60L72,2.49C74.21,0.83,77.1,0,80,0
	c2.9,0,5.79,0.83,8,2.49L160,60z"/>
<g id="Grids">
</g>
<g id="Favorite">
</g>
<path fill="none" d="M160,0v150c0,3.1-1.41,5.88-3.64,7.72c-1.73,1.42-3.94,2.28-6.36,2.28H10c-5.52,0-10-4.48-10-10V0H160z"/>
<path fill="none" d="M160,0v150c0,3.1-1.41,5.88-3.64,7.72c-1.73,1.42-3.94,2.28-6.36,2.28H10c-5.52,0-10-4.48-10-10V0H160z"/>
<path fill="none" d="M160,0v150c0,3.1-1.41,5.88-3.64,7.72c-1.73,1.42-3.94,2.28-6.36,2.28H10c-5.52,0-10-4.48-10-10V0H160z"/>
<path fill="none" d="M160,0v150c0,3.1-1.41,5.88-3.64,7.72c-1.73,1.42-3.94,2.28-6.36,2.28H10c-5.52,0-10-4.48-10-10V0H160z"/>
<path fill="none" d="M160,0v150c0,3.1-1.41,5.88-3.64,7.72c-1.73,1.42-3.94,2.28-6.36,2.28H10c-5.52,0-10-4.48-10-10V0H160z"/>
<path fill="none" d="M160,0v150c0,3.1-1.41,5.88-3.64,7.72c-1.73,1.42-3.94,2.28-6.36,2.28H10c-5.52,0-10-4.48-10-10V0H160z"/>
<path fill="#FFFFFF" d="M125,160H35c-5.523,0-10-4.477-10-10V30c0-5.523,4.477-10,10-10h90c5.523,0,10,4.477,10,10v120
	C135,155.523,130.523,160,125,160z"/>
<path fill="#C9CDF3" d="M88.241,56.121c-3.069-1.233-6.506-0.07-8.241,2.604c-1.735-2.674-5.172-3.837-8.241-2.604
	c-3.487,1.401-5.178,5.364-3.777,8.851c1.343,3.345,11.988,11.679,11.988,11.679L80,76.674l0.03-0.023
	c0,0,10.645-8.334,11.988-11.678C93.42,61.485,91.728,57.522,88.241,56.121z"/>
<path fill="#99A0F3" d="M156.36,157.72c-1.73,1.42-3.94,2.28-6.36,2.28H10c-5.52,0-10-4.48-10-10V60L156.36,157.72z"/>
<path fill="#808AF3" d="M160,60v90c0,5.52-4.48,10-10,10H10c-2.42,0-4.64-0.86-6.36-2.28L160,60z"/>
</svg>
