<?xml version="1.0" encoding="utf-8"?>
<!-- Generator: Adobe Illustrator 17.0.0, SVG Export Plug-In . SVG Version: 6.00 Build 0)  -->
<!DOCTYPE svg PUBLIC "-//W3C//DTD SVG 1.1//EN" "http://www.w3.org/Graphics/SVG/1.1/DTD/svg11.dtd">
<svg version="1.1" xmlns="http://www.w3.org/2000/svg" xmlns:xlink="http://www.w3.org/1999/xlink" x="0px" y="0px" width="30px"
	 height="30px" viewBox="0 0 30 30" enable-background="new 0 0 30 30" xml:space="preserve">
<g id="Grids">
</g>
<g id="Ebene_1">
	<g id="Favorite">
	</g>
	<path fill="#A1A1A1" d="M29.371,6.086c-1.057,0.469-2.194,0.786-3.387,0.928c1.217-0.73,2.152-1.885,2.593-3.262
		c-1.139,0.676-2.401,1.166-3.745,1.431c-1.075-1.146-2.608-1.862-4.304-1.862c-3.256,0-5.897,2.64-5.897,5.896
		c0,0.462,0.052,0.912,0.153,1.344C9.884,10.316,5.539,7.968,2.63,4.401C2.123,5.271,1.832,6.284,1.832,7.365
		c0,2.046,1.041,3.851,2.623,4.908c-0.967-0.031-1.876-0.296-2.671-0.737c-0.001,0.025-0.001,0.049-0.001,0.074
		c0,2.857,2.033,5.24,4.73,5.782c-0.495,0.135-1.016,0.207-1.553,0.207c-0.38,0-0.749-0.037-1.109-0.106
		c0.75,2.343,2.928,4.047,5.508,4.095c-2.018,1.582-4.56,2.524-7.323,2.524c-0.476,0-0.945-0.028-1.407-0.082
		c2.61,1.673,5.709,2.649,9.039,2.649c10.846,0,16.777-8.985,16.777-16.777c0-0.256-0.006-0.51-0.017-0.763
		C27.58,8.307,28.58,7.269,29.371,6.086"/>
</g>
</svg>
