<?xml version="1.0" encoding="UTF-8" standalone="no"?>
<svg width="1024px" height="1024px" viewBox="0 0 1024 1024" version="1.1" xmlns="http://www.w3.org/2000/svg" xmlns:xlink="http://www.w3.org/1999/xlink" xmlns:sketch="http://www.bohemiancoding.com/sketch/ns">
    <!-- Generator: Sketch 3.1.1 (8761) - http://www.bohemiancoding.com/sketch -->
    <title>AppIcon_Nexts</title>
    <desc>Created with Sketch.</desc>
    <defs>
        <linearGradient x1="50%" y1="100%" x2="50%" y2="3.71181361%" id="linearGradient-1">
            <stop stop-color="#0D0D0D" offset="0%"></stop>
            <stop stop-color="#262626" offset="100%"></stop>
        </linearGradient>
    </defs>
    <g id="Page-1" stroke="none" stroke-width="1" fill="none" fill-rule="evenodd" sketch:type="MSPage">
        <g id="AppIcon_Nexts" sketch:type="MSArtboardGroup">
            <path d="M357.009067,0 L666.990933,0 C769.792,0 821.179733,0 876.5184,17.4933333 C936.9344,39.4837333 984.516267,87.0656 1006.50667,147.4816 C1024,202.811733 1024,254.216533 1024,357.009067 L1024,666.990933 C1024,769.792 1024,821.179733 1006.50667,876.5184 C984.516267,936.9344 936.9344,984.516267 876.5184,1006.49813 C821.179733,1024 769.792,1024 666.990933,1024 L357.009067,1024 C254.208,1024 202.811733,1024 147.4816,1006.49813 C87.0656,984.516267 39.4837333,936.9344 17.4933333,876.5184 C0,821.179733 0,769.792 0,666.990933 L0,357.009067 C0,254.216533 0,202.811733 17.4933333,147.4816 C39.4837333,87.0656 87.0656,39.4837333 147.4816,17.4933333 C202.811733,0 254.208,0 357.009067,0 L357.009067,0" id="Icon-Shape" fill="#D7D7D7" sketch:type="MSShapeGroup"></path>
            <g id="Group" sketch:type="MSLayerGroup">
                <rect id="Rectangle-2" fill="url(#linearGradient-1)" sketch:type="MSShapeGroup" x="0" y="0" width="1024" height="1024"></rect>
                <path d="M862,510.5 C862,319.128269 706.637752,164 515,164 C323.362248,164 168,319.128269 168,510.5 C168,701.871731 323.362248,857 515,857 C706.637752,857 862,701.871731 862,510.5 Z M198,510.5 C198,335.706942 339.920678,194 515,194 C690.079322,194 832,335.706942 832,510.5 C832,685.293058 690.079322,827 515,827 C339.920678,827 198,685.293058 198,510.5 Z" id="Oval-4" fill="#242424" sketch:type="MSShapeGroup"></path>
                <g id="Rectangle-10-+-Oval-4" transform="translate(180.000000, 134.000000)" fill="#323232" sketch:type="MSShapeGroup">
                    <path d="M682,376.5 C682,185.128269 526.637752,30 335,30 C143.362248,30 -12,185.128269 -12,376.5 C-12,567.871731 143.362248,723 335,723 C526.637752,723 682,567.871731 682,376.5 Z M18,376.5 C18,201.706942 159.920678,60 335,60 C510.079322,60 652,201.706942 652,376.5 C652,551.293058 510.079322,693 335,693 C159.920678,693 18,551.293058 18,376.5 Z" id="Oval-3"></path>
                </g>
                <path d="M280,701.5 C280,681.341607 263.658393,665 243.5,665 C223.341607,665 207,681.341607 207,701.5 C207,721.658393 223.341607,738 243.5,738 C263.658393,738 280,721.658393 280,701.5 Z" id="Oval-8" fill="#F17075" sketch:type="MSShapeGroup"></path>
                <path d="M422.931296,389.728351 C417.258421,383.691163 407.765539,383.395829 401.728351,389.068704 C395.691163,394.741579 395.395829,404.234461 401.068704,410.271649 L510.068704,526.271649 C515.741579,532.308837 525.234461,532.604171 531.271649,526.931296 C537.308837,521.258421 537.604171,511.765539 531.931296,505.728351 L422.931296,389.728351 Z" id="Line-2" fill="#F17075" sketch:type="MSShapeGroup"></path>
                <path d="M617.017744,294.01048 C619.91245,286.248403 615.966667,277.609374 608.20459,274.714669 C600.442514,271.819963 591.803485,275.765747 588.908779,283.527823 L504.889962,508.822052 C501.995256,516.584128 505.94104,525.223157 513.703116,528.117863 C521.465193,531.012568 530.104221,527.066785 532.998927,519.304709 L617.017744,294.01048 Z" id="Line" fill="#383838" sketch:type="MSShapeGroup"></path>
                <path d="M545,512.5 C545,497.864454 533.135546,486 518.5,486 C503.864454,486 492,497.864454 492,512.5 C492,527.135546 503.864454,539 518.5,539 C533.135546,539 545,527.135546 545,512.5 Z" id="Oval-5" fill="#F17075" sketch:type="MSShapeGroup"></path>
                <path d="M735,233.5 C735,213.341607 718.658393,197 698.5,197 C678.341607,197 662,213.341607 662,233.5 C662,253.658393 678.341607,270 698.5,270 C718.658393,270 735,253.658393 735,233.5 Z" id="Oval-6" fill="#F17075" sketch:type="MSShapeGroup"></path>
                <path d="M864,398.5 C864,378.341607 847.658393,362 827.5,362 C807.341607,362 791,378.341607 791,398.5 C791,418.658393 807.341607,435 827.5,435 C847.658393,435 864,418.658393 864,398.5 Z" id="Oval-7" fill="#F17075" sketch:type="MSShapeGroup"></path>
            </g>
        </g>
    </g>
</svg>