<?xml version="1.0" encoding="UTF-8" standalone="no"?>
<svg width="1010px" height="1010px" viewBox="0 0 1010 1010" version="1.1" xmlns="http://www.w3.org/2000/svg" xmlns:xlink="http://www.w3.org/1999/xlink" xmlns:sketch="http://www.bohemiancoding.com/sketch/ns">
    <title>AppIcon_TravelRadar copy 2 1</title>
    <description>Created with Sketch (http://www.bohemiancoding.com/sketch)</description>
    <defs>
        <linearGradient x1="50%" y1="0%" x2="50%" y2="99.4140625%" id="linearGradient-1">
            <stop stop-color="#DE146E" offset="0%"></stop>
            <stop stop-color="#990F42" offset="100%"></stop>
        </linearGradient>
    </defs>
    <g id="Page-1" stroke="none" stroke-width="1" fill="none" fill-rule="evenodd" sketch:type="MSPage">
        <g id="AppIcon_TravelRadar-copy-2-1" sketch:type="MSArtboardGroup">
            <g id="AppIconTemplate" sketch:type="MSLayerGroup" transform="translate(-4.000000, 0.000000)" fill="url(#linearGradient-1)">
                <g id="layer5" sketch:type="MSShapeGroup">
                    <rect id="rect4108" x="0" y="0" width="1024" height="1024"></rect>
                </g>
            </g>
            <g id="Group-copy" sketch:type="MSLayerGroup" transform="translate(81.000000, 81.000000)">
                <path d="M423.812045,739.861231 C599.249911,739.861231 741.470386,597.649438 741.470386,422.222282 C741.470386,246.795126 599.249911,104.583333 423.812045,104.583333 C248.374179,104.583333 106.153704,246.795126 106.153704,422.222282 C106.153704,597.649438 248.374179,739.861231 423.812045,739.861231 Z" id="Oval" opacity="0.692116477" fill="#E8A0BE" sketch:type="MSShapeGroup"></path>
                <path d="M424,775.762963 C619.140621,775.762963 777.333333,617.570251 777.333333,422.42963 C777.333333,227.289008 619.140621,69.0962963 424,69.0962963 C228.859379,69.0962963 70.6666667,227.289008 70.6666667,422.42963 C70.6666667,617.570251 228.859379,775.762963 424,775.762963 Z" id="Oval" stroke="#FFFFFF" stroke-width="74" opacity="0.3" sketch:type="MSShapeGroup"></path>
                <ellipse id="Oval" stroke="#FFFFFF" stroke-width="74" opacity="0.0973011364" sketch:type="MSShapeGroup" cx="423.227687" cy="424.780847" rx="423.227687" ry="424.780847"></ellipse>
            </g>
            <path d="M509.796232,758.885929 C648.248876,758.885929 760.486908,646.654749 760.486908,508.210557 C760.486908,369.766365 648.248876,257.535185 509.796232,257.535185 C371.343588,257.535185 259.105556,369.766365 259.105556,508.210557 C259.105556,646.654749 371.343588,758.885929 509.796232,758.885929 Z" id="Oval" fill="#CC1362" sketch:type="MSShapeGroup"></path>
            <path d="M509.745032,552.028291 C528.444159,552.028291 543.602795,536.87058 543.602795,518.172594 C543.602795,499.474609 528.444159,484.316898 509.745032,484.316898 C491.045905,484.316898 475.887269,499.474609 475.887269,518.172594 C475.887269,536.87058 491.045905,552.028291 509.745032,552.028291 Z" id="Oval" fill="#D9146B" sketch:type="MSShapeGroup"></path>
            <path d="M510.499044,549 C492.550441,549 478,534.449559 478,516.5 C478,498.550441 492.550441,484 510.499044,484 C528.448603,484 543,498.550441 543,516.5 C543,534.449559 528.448603,549 510.499044,549 M468,385 L468,368.212982 C468,356.497141 477.468287,347 489.147362,347 L529.853588,347 C541.532663,347 551,356.497141 551,368.212982 L551,385 L468,385 M546.24406,317 L472.754031,317 C451.670028,317 434.577393,334.090303 434.577393,355.171429 L434.577393,383.8 C434.577393,384.119686 434.594573,384.436509 434.602208,384.754286 L404.214558,384.754286 C369.85463,384.754286 342,412.929571 342,447.684657 L342,588.069629 C342,622.824714 369.85463,651 404.214558,651 L614.785442,651 C649.14537,651 677,622.824714 677,588.069629 L677,447.684657 C677,412.929571 649.14537,384.754286 614.785442,384.754286 L584.396838,384.754286 C584.404473,384.436509 584.420698,384.119686 584.420698,383.8 L584.420698,355.171429 C584.420698,334.090303 567.329017,317 546.24406,317" id="Imported-Layers" fill="#FFFFFF" sketch:type="MSShapeGroup"></path>
        </g>
    </g>
</svg>