<?xml version="1.0" encoding="utf-8"?>
<!-- Generator: Adobe Illustrator 17.0.0, SVG Export Plug-In . SVG Version: 6.00 Build 0)  -->
<!DOCTYPE svg PUBLIC "-//W3C//DTD SVG 1.1//EN" "http://www.w3.org/Graphics/SVG/1.1/DTD/svg11.dtd">
<svg version="1.1" xmlns="http://www.w3.org/2000/svg" xmlns:xlink="http://www.w3.org/1999/xlink" x="0px" y="0px" width="160px"
	 height="160px" viewBox="0 0 160 160" enable-background="new 0 0 160 160" xml:space="preserve">
<g id="Grids">
</g>
<g id="Ebene_1">
	<g id="Favorite">
	</g>
	<path fill="#FFFFFF" d="M108.005,160.092h-56.01c-5.523,0-10.396-4.46-10.885-9.961L30,25.092h100l-11.11,125.039
		C118.401,155.632,113.528,160.092,108.005,160.092z"/>
	<path fill="#C0C4F3" d="M30,25.046l2.699-20.045c0.368-2.737,2.906-4.955,5.667-4.955h83.269c2.761,0,5.299,2.219,5.667,4.955
		L130,25.046H30z"/>
	<path fill="#B4B9F3" d="M25,40.184v-12c0-1.657,1.343-3,3-3h104c1.657,0,3,1.343,3,3v12H25z"/>
	<polygon fill="#FFFFFF" points="126.945,59.472 121.055,125.712 38.935,125.712 33.055,59.472 	"/>
	<polygon fill="#99A0F3" points="123.241,125.712 36.748,125.712 30.555,59.472 129.445,59.472 	"/>
	<path fill="#6874F3" d="M88.241,82.561c-3.069-1.233-6.506-0.07-8.241,2.604c-1.735-2.674-5.172-3.837-8.241-2.604
		c-3.487,1.401-5.179,5.364-3.777,8.851c1.343,3.344,11.988,11.678,11.988,11.678l0.03,0.023l0.03-0.023
		c0,0,10.645-8.334,11.988-11.678C93.42,87.926,91.728,83.963,88.241,82.561z"/>
</g>
</svg>
