<?xml version="1.0" encoding="utf-8"?>
<!-- Generator: Adobe Illustrator 17.0.0, SVG Export Plug-In . SVG Version: 6.00 Build 0)  -->
<!DOCTYPE svg PUBLIC "-//W3C//DTD SVG 1.1//EN" "http://www.w3.org/Graphics/SVG/1.1/DTD/svg11.dtd">
<svg version="1.1" xmlns="http://www.w3.org/2000/svg" xmlns:xlink="http://www.w3.org/1999/xlink" x="0px" y="0px" width="160px"
	 height="160px" viewBox="0 0 160 160" enable-background="new 0 0 160 160" xml:space="preserve">
<g id="Grids">
</g>
<g id="Ebene_1">
	<g id="Favorite">
	</g>
	<g>
		<g>
			<path fill="#99A0F3" d="M150,140c0,5.5-4.5,10-10,10H20c-5.5,0-10-4.5-10-10V20c0-5.5,4.5-10,10-10h120c5.5,0,10,4.5,10,10V140z"
				/>
		</g>
		<path fill="#FFFFFF" d="M117.887,59.973c-2.628,1.166-5.453,1.954-8.417,2.308c3.025-1.814,5.349-4.686,6.444-8.108
			c-2.832,1.68-5.968,2.899-9.307,3.556c-2.673-2.848-6.482-4.628-10.697-4.628c-8.093,0-14.655,6.561-14.655,14.655
			c0,1.149,0.13,2.267,0.38,3.34c-12.18-0.611-22.979-6.446-30.207-15.312c-1.261,2.164-1.984,4.682-1.984,7.368
			c0,5.085,2.587,9.57,6.52,12.198c-2.402-0.076-4.662-0.735-6.638-1.833c-0.001,0.061-0.001,0.122-0.001,0.184
			c0,7.1,5.052,13.024,11.756,14.37c-1.23,0.335-2.524,0.514-3.861,0.514c-0.944,0-1.863-0.092-2.757-0.263
			c1.865,5.822,7.277,10.059,13.69,10.177c-5.016,3.931-11.334,6.274-18.201,6.274c-1.183,0-2.349-0.07-3.496-0.205
			c6.486,4.158,14.189,6.585,22.465,6.585c26.956,0,41.697-22.331,41.697-41.697c0-0.635-0.015-1.267-0.043-1.896
			C113.438,65.493,115.923,62.912,117.887,59.973"/>
	</g>
</g>
</svg>
