<?xml version="1.0" encoding="utf-8"?>
<!-- Generator: Adobe Illustrator 17.0.0, SVG Export Plug-In . SVG Version: 6.00 Build 0)  -->
<!DOCTYPE svg PUBLIC "-//W3C//DTD SVG 1.1//EN" "http://www.w3.org/Graphics/SVG/1.1/DTD/svg11.dtd">
<svg version="1.1" xmlns="http://www.w3.org/2000/svg" xmlns:xlink="http://www.w3.org/1999/xlink" x="0px" y="0px" width="30px"
	 height="30px" viewBox="0 0 30 30" enable-background="new 0 0 30 30" xml:space="preserve">
<g id="Grids">
</g>
<g id="Ebene_1">
	<g id="Favorite">
	</g>
	<path fill="#A1A1A1" d="M25.494,3.722c-0.749-0.011-2.488,0.243-5.392,2.187c-1.583-0.396-3.267-0.591-4.953-0.591
		c-1.856,0-3.732,0.236-5.481,0.715C5.499,3.189,3.659,3.772,3.659,3.772C2.458,6.776,3.2,9,3.426,9.553
		c-1.412,1.524-2.274,3.47-2.274,5.855c0,1.801,0.205,3.416,0.706,4.819c0.028,0.108,0.019,0.084,0.066,0.177
		c0.11,0.291,0.233,0.573,0.371,0.845c0.047,0.098,0.09,0.171,0.09,0.171c1.407,2.624,4.182,4.318,9.119,4.85l7.466,0.008
		c5.265-0.522,7.791-2.222,8.955-4.863l0.074-0.172c0.11-0.267,0.206-0.544,0.469-1.479c0.263-0.934,0.381-2.553,0.381-4.358
		c0-2.589-0.972-4.66-2.551-6.236c0.276-0.891,0.644-2.868-0.368-5.4C25.929,3.771,25.787,3.726,25.494,3.722L25.494,3.722z
		 M19.61,13.221c1.216-0.003,2.257,0.206,3.039,1.026v0.001c0.978,1.027,1.551,2.268,1.551,3.604c0,6.241-4.014,6.41-8.964,6.41
		c-4.951,0-8.964-0.865-8.964-6.41c0-1.328,0.564-2.561,1.53-3.584c1.612-1.705,4.339-0.802,7.434-0.802
		C16.824,13.466,18.316,13.224,19.61,13.221L19.61,13.221z M10.389,15.059c-1.03,0-1.865,1.393-1.865,3.111
		c0,1.719,0.835,3.112,1.865,3.112c1.03,0,1.865-1.393,1.865-3.112C12.254,16.452,11.419,15.06,10.389,15.059L10.389,15.059z
		 M20.396,15.059c-1.03,0-1.865,1.393-1.865,3.111c0,1.719,0.835,3.112,1.865,3.112c1.03,0,1.865-1.393,1.865-3.112
		C22.262,16.452,21.426,15.06,20.396,15.059L20.396,15.059z"/>
</g>
</svg>
