<?xml version="1.0" encoding="utf-8"?>
<!-- Generator: Adobe Illustrator 17.0.0, SVG Export Plug-In . SVG Version: 6.00 Build 0)  -->
<!DOCTYPE svg PUBLIC "-//W3C//DTD SVG 1.1//EN" "http://www.w3.org/Graphics/SVG/1.1/DTD/svg11.dtd">
<svg version="1.1" id="Layer_1" xmlns="http://www.w3.org/2000/svg" xmlns:xlink="http://www.w3.org/1999/xlink" x="0px" y="0px"
	 width="400px" height="160px" viewBox="121.842 0 400 160" enable-background="new 121.842 0 400 160" xml:space="preserve">
<g>
	<g>
		<g>
			<path fill="#FFFFFF" d="M160.324,146.986c-5.27,9.655-17.266,13.361-26.657,8.235c-9.391-5.126-12.763-17.22-7.493-26.875
				l62.951-115.331c5.27-9.655,17.266-13.361,26.657-8.235c9.391,5.126,12.763,17.22,7.493,26.875L160.324,146.986z"/>
		</g>
		<g>
			<path fill="#FFFFFF" d="M288.537,146.986c-5.27,9.655-17.266,13.361-26.657,8.235c-9.391-5.126-12.763-17.22-7.493-26.875
				l31.938-58.514c5.27-9.655,17.266-13.361,26.657-8.235c9.391,5.126,12.763,17.22,7.493,26.875L288.537,146.986z"/>
		</g>
		<g>
			<path fill="#FFFFFF" d="M253.658,146.986c5.27,9.655,17.266,13.361,26.657,8.235s12.763-17.22,7.493-26.875l-62.95-115.331
				c-5.27-9.655-17.266-13.361-26.657-8.235c-9.391,5.126-12.763,17.22-7.493,26.875L253.658,146.986z"/>
		</g>
		<g>
			<path fill="#FFFFFF" d="M318.848,146.986c5.27,9.655,17.266,13.361,26.657,8.235c9.391-5.126,12.763-17.22,7.493-26.875
				L321.06,69.831c-5.27-9.655-17.266-13.361-26.657-8.235s-12.763,17.22-7.493,26.875L318.848,146.986z"/>
		</g>
		<g>
			<path fill="#FFFFFF" d="M354.034,146.986c-5.27,9.655-17.266,13.361-26.657,8.235c-9.391-5.126-12.763-17.22-7.493-26.875
				l31.938-58.514c5.27-9.655,17.266-13.361,26.657-8.235s12.763,17.22,7.493,26.875L354.034,146.986z"/>
		</g>
		<g>
			<path fill="#FFFFFF" d="M384.345,146.986c5.27,9.655,17.266,13.361,26.657,8.235s12.763-17.22,7.493-26.875l-31.938-58.514
				c-5.27-9.655-17.266-13.361-26.657-8.235c-9.391,5.126-12.763,17.22-7.493,26.875L384.345,146.986z"/>
		</g>
		<g>
			<path fill="#FFFFFF" d="M419.744,146.986c-5.27,9.655-17.266,13.361-26.657,8.235c-9.391-5.126-12.763-17.22-7.493-26.875
				l31.938-58.514c5.27-9.655,17.266-13.361,26.657-8.235c9.391,5.126,12.763,17.22,7.493,26.875L419.744,146.986z"/>
		</g>
		<g>
			<path fill="#FFFFFF" d="M450.055,146.986c5.27,9.655,17.266,13.361,26.657,8.235c9.391-5.126,12.763-17.22,7.493-26.875
				l-31.938-58.514c-5.27-9.655-17.266-13.361-26.657-8.235s-12.763,17.22-7.493,26.875L450.055,146.986z"/>
		</g>
		<g>
			<path fill="#FFFFFF" d="M485.572,146.986c-5.27,9.655-17.266,13.361-26.657,8.235c-9.391-5.126-12.763-17.22-7.493-26.875
				l31.938-58.514c5.27-9.655,17.266-13.361,26.657-8.235c9.391,5.126,12.763,17.22,7.493,26.875L485.572,146.986z"/>
		</g>
	</g>
</g>
</svg>
